<svg xmlns="http://www.w3.org/2000/svg" version="1.1" xmlns:xlink="http://www.w3.org/1999/xlink" xmlns:svgjs="http://svgjs.com/svgjs" width="1920" height="2000" preserveAspectRatio="none" viewBox="0 0 1920 2000"><g mask="url(&quot;#SvgjsMask1818&quot;)" fill="none"><rect width="1920" height="2000" x="0" y="0" fill="url(#SvgjsLinearGradient1819)"></rect><path d="M1920 0L1066.44 0L1920 854.02z" fill="rgba(255, 255, 255, .1)"></path><path d="M1066.44 0L1920 854.02L1920 889.77L504.24 0z" fill="rgba(255, 255, 255, .075)"></path><path d="M504.24 0L1920 889.77L1920 1298.23L487.25 0z" fill="rgba(255, 255, 255, .05)"></path><path d="M487.25 0L1920 1298.23L1920 1490.1L151.63 0z" fill="rgba(255, 255, 255, .025)"></path><path d="M0 2000L606.84 2000L0 1859.9z" fill="rgba(0, 0, 0, .1)"></path><path d="M0 1859.9L606.84 2000L950.23 2000L0 1377.1100000000001z" fill="rgba(0, 0, 0, .075)"></path><path d="M0 1377.1100000000001L950.23 2000L1091.53 2000L0 777.5400000000001z" fill="rgba(0, 0, 0, .05)"></path><path d="M0 777.54L1091.53 2000L1111.09 2000L0 276.83z" fill="rgba(0, 0, 0, .025)"></path></g><defs><mask id="SvgjsMask1818"><rect width="1920" height="2000" fill="#ffffff"></rect></mask><linearGradient x1="-1.04%" y1="99%" x2="101.04%" y2="1%" gradientUnits="userSpaceOnUse" id="SvgjsLinearGradient1819"><stop stop-color="#0e2a47" offset="0"></stop><stop stop-color="rgba(0, 109, 255, 1)" offset="1"></stop></linearGradient></defs></svg>